<svg xmlns="http://www.w3.org/2000/svg" viewBox="0 0 24 24" width="24" height="24">
  <path fill="white" d="M0 0h24v24H0z"/>
  <path transform="scale(-1, 1) translate(-24, 0)" fill="white" d="M19 3h-7c-.55 0-1 .45-1 1s.45 1 1 1h7a1 1 0 0 1 1 1v14a1 1 0 0 1-1 1h-7c-.55 0-1 .45-1 1s.45 1 1 1h7a3 3 0 0 0 3-3V6a3 3 0 0 0-3-3z"/>
  <path transform="scale(-1, 1) translate(-24, 0)" fill="white" d="M9.83 12H17a1 1 0 0 0 0-2H9.83l2.59-2.59a1 1 0 1 0-1.41-1.41l-4.24 4.24a1 1 0 0 0 0 1.41l4.24 4.24a1 1 0 1 0 1.41-1.41L9.83 12z"/>
</svg>
